<mxfile host="app.diagrams.net" agent="Mozilla/5.0 (Windows NT 10.0; Win64; x64) AppleWebKit/537.36 (KHTML, like Gecko) Chrome/135.0.0.0 Safari/537.36" version="26.2.12">
  <diagram name="PÃ¡gina-1" id="3ar1qyF-hi4ckDsHelcz">
    <mxGraphModel dx="1044" dy="623" grid="1" gridSize="10" guides="1" tooltips="1" connect="1" arrows="1" fold="1" page="1" pageScale="1" pageWidth="827" pageHeight="1169" math="0" shadow="0">
      <root>
        <mxCell id="0" />
        <mxCell id="1" parent="0" />
        <mxCell id="TXpV8QBchbM1sa9OBaiE-1" value="" style="rounded=0;whiteSpace=wrap;html=1;fillColor=#1ba1e2;fontColor=#ffffff;strokeColor=#006EAF;" parent="1" vertex="1">
          <mxGeometry x="260" y="170" width="550" height="530" as="geometry" />
        </mxCell>
        <mxCell id="m1_RTbBFShSdH4C13ESz-1" value="" style="rounded=0;whiteSpace=wrap;html=1;fillColor=#0050ef;fontColor=#ffffff;strokeColor=#001DBC;" vertex="1" parent="1">
          <mxGeometry x="298" y="220" width="490" height="450" as="geometry" />
        </mxCell>
        <mxCell id="TXpV8QBchbM1sa9OBaiE-2" value="Portal-Pagamentos" style="text;html=1;align=center;verticalAlign=middle;resizable=0;points=[];autosize=1;strokeColor=none;fillColor=none;" parent="1" vertex="1">
          <mxGeometry x="470" y="190" width="130" height="30" as="geometry" />
        </mxCell>
        <mxCell id="TXpV8QBchbM1sa9OBaiE-4" value="" style="ellipse;whiteSpace=wrap;html=1;aspect=fixed;fillColor=#1ba1e2;fontColor=#ffffff;strokeColor=#006EAF;" parent="1" vertex="1">
          <mxGeometry x="390" y="80" width="30" height="30" as="geometry" />
        </mxCell>
        <mxCell id="TXpV8QBchbM1sa9OBaiE-6" value="Rest API" style="text;html=1;align=center;verticalAlign=middle;resizable=0;points=[];autosize=1;strokeColor=none;fillColor=none;" parent="1" vertex="1">
          <mxGeometry x="356" y="50" width="70" height="30" as="geometry" />
        </mxCell>
        <mxCell id="TXpV8QBchbM1sa9OBaiE-7" style="edgeStyle=orthogonalEdgeStyle;rounded=0;orthogonalLoop=1;jettySize=auto;html=1;entryX=0.75;entryY=0;entryDx=0;entryDy=0;strokeColor=default;endArrow=none;startFill=0;endFill=0;startArrow=halfCircle;" parent="1" target="TXpV8QBchbM1sa9OBaiE-42" edge="1">
          <mxGeometry relative="1" as="geometry">
            <mxPoint x="500" y="170" as="targetPoint" />
            <mxPoint x="720" y="100" as="sourcePoint" />
            <Array as="points">
              <mxPoint x="720" y="250" />
            </Array>
          </mxGeometry>
        </mxCell>
        <mxCell id="TXpV8QBchbM1sa9OBaiE-9" value="PostGres" style="text;html=1;align=center;verticalAlign=middle;resizable=0;points=[];autosize=1;strokeColor=none;fillColor=none;" parent="1" vertex="1">
          <mxGeometry x="680" y="70" width="70" height="30" as="geometry" />
        </mxCell>
        <mxCell id="TXpV8QBchbM1sa9OBaiE-14" value="" style="rounded=0;whiteSpace=wrap;html=1;fillColor=light-dark(#FFFFFF,#00FF00);" parent="1" vertex="1">
          <mxGeometry x="308" y="260" width="470" height="80" as="geometry" />
        </mxCell>
        <mxCell id="TXpV8QBchbM1sa9OBaiE-15" value="" style="rounded=0;whiteSpace=wrap;html=1;fillColor=light-dark(#FFFFFF,#FF9933);" parent="1" vertex="1">
          <mxGeometry x="308" y="360" width="470" height="80" as="geometry" />
        </mxCell>
        <mxCell id="TXpV8QBchbM1sa9OBaiE-16" value="" style="rounded=0;whiteSpace=wrap;html=1;fillColor=light-dark(#FFFFFF,#CC0000);" parent="1" vertex="1">
          <mxGeometry x="308" y="460" width="470" height="80" as="geometry" />
        </mxCell>
        <mxCell id="TXpV8QBchbM1sa9OBaiE-17" value="" style="rounded=0;whiteSpace=wrap;html=1;fillColor=light-dark(#FFFFFF,#CC00CC);" parent="1" vertex="1">
          <mxGeometry x="308" y="560" width="470" height="80" as="geometry" />
        </mxCell>
        <mxCell id="TXpV8QBchbM1sa9OBaiE-18" value="Interface" style="text;html=1;align=center;verticalAlign=middle;resizable=0;points=[];autosize=1;strokeColor=none;fillColor=none;" parent="1" vertex="1">
          <mxGeometry x="498" y="260" width="70" height="30" as="geometry" />
        </mxCell>
        <mxCell id="TXpV8QBchbM1sa9OBaiE-19" value="Controller" style="text;html=1;align=center;verticalAlign=middle;resizable=0;points=[];autosize=1;strokeColor=none;fillColor=none;" parent="1" vertex="1">
          <mxGeometry x="493" y="360" width="80" height="30" as="geometry" />
        </mxCell>
        <mxCell id="TXpV8QBchbM1sa9OBaiE-20" value="Service" style="text;html=1;align=center;verticalAlign=middle;resizable=0;points=[];autosize=1;strokeColor=none;fillColor=none;" parent="1" vertex="1">
          <mxGeometry x="503" y="460" width="60" height="30" as="geometry" />
        </mxCell>
        <mxCell id="TXpV8QBchbM1sa9OBaiE-21" value="Domain" style="text;html=1;align=center;verticalAlign=middle;resizable=0;points=[];autosize=1;strokeColor=none;fillColor=none;" parent="1" vertex="1">
          <mxGeometry x="503" y="560" width="60" height="30" as="geometry" />
        </mxCell>
        <mxCell id="TXpV8QBchbM1sa9OBaiE-22" value="" style="rounded=0;whiteSpace=wrap;html=1;fillColor=light-dark(#FFFFFF,#000099);" parent="1" vertex="1">
          <mxGeometry x="348" y="280" width="110" height="50" as="geometry" />
        </mxCell>
        <mxCell id="TXpV8QBchbM1sa9OBaiE-23" value="&amp;lt;&amp;lt;component&amp;gt;&amp;gt;" style="text;html=1;align=center;verticalAlign=middle;resizable=0;points=[];autosize=1;strokeColor=none;fillColor=none;" parent="1" vertex="1">
          <mxGeometry x="480" y="170" width="110" height="30" as="geometry" />
        </mxCell>
        <mxCell id="TXpV8QBchbM1sa9OBaiE-25" value="API" style="text;html=1;align=center;verticalAlign=middle;resizable=0;points=[];autosize=1;strokeColor=none;fillColor=none;" parent="1" vertex="1">
          <mxGeometry x="383" y="290" width="40" height="30" as="geometry" />
        </mxCell>
        <mxCell id="TXpV8QBchbM1sa9OBaiE-33" style="edgeStyle=orthogonalEdgeStyle;rounded=0;orthogonalLoop=1;jettySize=auto;html=1;exitX=0.25;exitY=0;exitDx=0;exitDy=0;endArrow=halfCircle;endFill=0;" parent="1" source="TXpV8QBchbM1sa9OBaiE-26" edge="1">
          <mxGeometry relative="1" as="geometry">
            <mxPoint x="376" y="350" as="targetPoint" />
          </mxGeometry>
        </mxCell>
        <mxCell id="TXpV8QBchbM1sa9OBaiE-26" value="" style="rounded=0;whiteSpace=wrap;html=1;fillColor=light-dark(#FFFFFF,#000099);" parent="1" vertex="1">
          <mxGeometry x="348" y="380" width="110" height="50" as="geometry" />
        </mxCell>
        <mxCell id="TXpV8QBchbM1sa9OBaiE-27" value="Controller" style="text;html=1;align=center;verticalAlign=middle;resizable=0;points=[];autosize=1;strokeColor=none;fillColor=none;" parent="1" vertex="1">
          <mxGeometry x="363" y="390" width="80" height="30" as="geometry" />
        </mxCell>
        <mxCell id="TXpV8QBchbM1sa9OBaiE-28" value="" style="rounded=0;whiteSpace=wrap;html=1;fillColor=light-dark(#FFFFFF,#000099);" parent="1" vertex="1">
          <mxGeometry x="348" y="480" width="110" height="50" as="geometry" />
        </mxCell>
        <mxCell id="TXpV8QBchbM1sa9OBaiE-29" value="Service" style="text;html=1;align=center;verticalAlign=middle;resizable=0;points=[];autosize=1;strokeColor=none;fillColor=none;" parent="1" vertex="1">
          <mxGeometry x="373" y="490" width="60" height="30" as="geometry" />
        </mxCell>
        <mxCell id="TXpV8QBchbM1sa9OBaiE-30" value="" style="rounded=0;whiteSpace=wrap;html=1;fillColor=light-dark(#FFFFFF,#000099);" parent="1" vertex="1">
          <mxGeometry x="478" y="590" width="110" height="50" as="geometry" />
        </mxCell>
        <mxCell id="TXpV8QBchbM1sa9OBaiE-31" value="Domain" style="text;html=1;align=center;verticalAlign=middle;resizable=0;points=[];autosize=1;strokeColor=none;fillColor=none;" parent="1" vertex="1">
          <mxGeometry x="503" y="600" width="60" height="30" as="geometry" />
        </mxCell>
        <mxCell id="TXpV8QBchbM1sa9OBaiE-5" style="edgeStyle=orthogonalEdgeStyle;rounded=0;orthogonalLoop=1;jettySize=auto;html=1;exitX=0.5;exitY=1;exitDx=0;exitDy=0;strokeColor=default;endArrow=none;startFill=0;entryX=0.5;entryY=0;entryDx=0;entryDy=0;jumpSize=0;jumpStyle=line;" parent="1" source="TXpV8QBchbM1sa9OBaiE-4" target="TXpV8QBchbM1sa9OBaiE-22" edge="1">
          <mxGeometry relative="1" as="geometry">
            <mxPoint x="450" y="140" as="targetPoint" />
            <Array as="points">
              <mxPoint x="405" y="140" />
              <mxPoint x="405" y="140" />
            </Array>
          </mxGeometry>
        </mxCell>
        <mxCell id="TXpV8QBchbM1sa9OBaiE-32" style="edgeStyle=orthogonalEdgeStyle;rounded=0;orthogonalLoop=1;jettySize=auto;html=1;endArrow=oval;endFill=0;" parent="1" edge="1">
          <mxGeometry relative="1" as="geometry">
            <mxPoint x="376" y="330" as="sourcePoint" />
            <mxPoint x="376" y="351" as="targetPoint" />
            <Array as="points">
              <mxPoint x="376" y="351" />
            </Array>
          </mxGeometry>
        </mxCell>
        <mxCell id="TXpV8QBchbM1sa9OBaiE-36" style="edgeStyle=orthogonalEdgeStyle;rounded=0;orthogonalLoop=1;jettySize=auto;html=1;exitX=0.25;exitY=0;exitDx=0;exitDy=0;endArrow=halfCircle;endFill=0;" parent="1" source="TXpV8QBchbM1sa9OBaiE-28" edge="1">
          <mxGeometry relative="1" as="geometry">
            <mxPoint x="376" y="450" as="targetPoint" />
            <mxPoint x="386" y="390" as="sourcePoint" />
          </mxGeometry>
        </mxCell>
        <mxCell id="TXpV8QBchbM1sa9OBaiE-37" style="edgeStyle=orthogonalEdgeStyle;rounded=0;orthogonalLoop=1;jettySize=auto;html=1;endArrow=oval;endFill=0;exitX=0.25;exitY=1;exitDx=0;exitDy=0;" parent="1" source="TXpV8QBchbM1sa9OBaiE-26" edge="1">
          <mxGeometry relative="1" as="geometry">
            <mxPoint x="386" y="340" as="sourcePoint" />
            <mxPoint x="376" y="450" as="targetPoint" />
            <Array as="points">
              <mxPoint x="376" y="450" />
            </Array>
          </mxGeometry>
        </mxCell>
        <mxCell id="TXpV8QBchbM1sa9OBaiE-38" style="edgeStyle=orthogonalEdgeStyle;rounded=0;orthogonalLoop=1;jettySize=auto;html=1;exitX=0.25;exitY=1;exitDx=0;exitDy=0;endArrow=halfCircle;endFill=0;" parent="1" source="TXpV8QBchbM1sa9OBaiE-28" edge="1">
          <mxGeometry relative="1" as="geometry">
            <mxPoint x="388" y="610" as="targetPoint" />
            <mxPoint x="396" y="400" as="sourcePoint" />
            <Array as="points">
              <mxPoint x="388" y="530" />
            </Array>
          </mxGeometry>
        </mxCell>
        <mxCell id="TXpV8QBchbM1sa9OBaiE-42" value="" style="rounded=0;whiteSpace=wrap;html=1;fillColor=light-dark(#FFFFFF,#000099);" parent="1" vertex="1">
          <mxGeometry x="638" y="280" width="110" height="50" as="geometry" />
        </mxCell>
        <mxCell id="TXpV8QBchbM1sa9OBaiE-43" value="Repository" style="text;html=1;align=center;verticalAlign=middle;resizable=0;points=[];autosize=1;strokeColor=none;fillColor=none;" parent="1" vertex="1">
          <mxGeometry x="653" y="290" width="80" height="30" as="geometry" />
        </mxCell>
        <mxCell id="TXpV8QBchbM1sa9OBaiE-44" style="edgeStyle=orthogonalEdgeStyle;rounded=0;orthogonalLoop=1;jettySize=auto;html=1;exitX=0.25;exitY=0;exitDx=0;exitDy=0;endArrow=halfCircle;endFill=0;" parent="1" source="TXpV8QBchbM1sa9OBaiE-45" edge="1">
          <mxGeometry relative="1" as="geometry">
            <mxPoint x="666" y="350" as="targetPoint" />
          </mxGeometry>
        </mxCell>
        <mxCell id="TXpV8QBchbM1sa9OBaiE-45" value="" style="rounded=0;whiteSpace=wrap;html=1;fillColor=light-dark(#FFFFFF,#000099);" parent="1" vertex="1">
          <mxGeometry x="638" y="380" width="110" height="50" as="geometry" />
        </mxCell>
        <mxCell id="TXpV8QBchbM1sa9OBaiE-46" value="Mapper" style="text;html=1;align=center;verticalAlign=middle;resizable=0;points=[];autosize=1;strokeColor=none;fillColor=none;" parent="1" vertex="1">
          <mxGeometry x="663" y="390" width="60" height="30" as="geometry" />
        </mxCell>
        <mxCell id="TXpV8QBchbM1sa9OBaiE-47" value="" style="rounded=0;whiteSpace=wrap;html=1;fillColor=light-dark(#FFFFFF,#000099);" parent="1" vertex="1">
          <mxGeometry x="638" y="480" width="110" height="50" as="geometry" />
        </mxCell>
        <mxCell id="TXpV8QBchbM1sa9OBaiE-48" value="Factory" style="text;html=1;align=center;verticalAlign=middle;resizable=0;points=[];autosize=1;strokeColor=none;fillColor=none;" parent="1" vertex="1">
          <mxGeometry x="663" y="490" width="60" height="30" as="geometry" />
        </mxCell>
        <mxCell id="TXpV8QBchbM1sa9OBaiE-49" style="edgeStyle=orthogonalEdgeStyle;rounded=0;orthogonalLoop=1;jettySize=auto;html=1;endArrow=oval;endFill=0;" parent="1" edge="1">
          <mxGeometry relative="1" as="geometry">
            <mxPoint x="666" y="330" as="sourcePoint" />
            <mxPoint x="666" y="351" as="targetPoint" />
            <Array as="points">
              <mxPoint x="666" y="351" />
            </Array>
          </mxGeometry>
        </mxCell>
        <mxCell id="TXpV8QBchbM1sa9OBaiE-50" style="edgeStyle=orthogonalEdgeStyle;rounded=0;orthogonalLoop=1;jettySize=auto;html=1;exitX=0.25;exitY=0;exitDx=0;exitDy=0;endArrow=halfCircle;endFill=0;" parent="1" source="TXpV8QBchbM1sa9OBaiE-47" edge="1">
          <mxGeometry relative="1" as="geometry">
            <mxPoint x="666" y="450" as="targetPoint" />
            <mxPoint x="676" y="390" as="sourcePoint" />
          </mxGeometry>
        </mxCell>
        <mxCell id="TXpV8QBchbM1sa9OBaiE-51" style="edgeStyle=orthogonalEdgeStyle;rounded=0;orthogonalLoop=1;jettySize=auto;html=1;endArrow=oval;endFill=0;exitX=0.25;exitY=1;exitDx=0;exitDy=0;" parent="1" source="TXpV8QBchbM1sa9OBaiE-45" edge="1">
          <mxGeometry relative="1" as="geometry">
            <mxPoint x="676" y="340" as="sourcePoint" />
            <mxPoint x="666" y="450" as="targetPoint" />
            <Array as="points">
              <mxPoint x="666" y="450" />
            </Array>
          </mxGeometry>
        </mxCell>
        <mxCell id="TXpV8QBchbM1sa9OBaiE-53" style="edgeStyle=orthogonalEdgeStyle;rounded=0;orthogonalLoop=1;jettySize=auto;html=1;endArrow=oval;endFill=0;" parent="1" edge="1">
          <mxGeometry relative="1" as="geometry">
            <mxPoint x="588" y="615" as="sourcePoint" />
            <mxPoint x="658" y="615" as="targetPoint" />
            <Array as="points">
              <mxPoint x="588" y="615" />
              <mxPoint x="728" y="615" />
            </Array>
          </mxGeometry>
        </mxCell>
        <mxCell id="TXpV8QBchbM1sa9OBaiE-54" style="edgeStyle=orthogonalEdgeStyle;rounded=0;orthogonalLoop=1;jettySize=auto;html=1;endArrow=oval;endFill=0;" parent="1" edge="1">
          <mxGeometry relative="1" as="geometry">
            <mxPoint x="638" y="504.5" as="sourcePoint" />
            <mxPoint x="544" y="504.5" as="targetPoint" />
            <Array as="points">
              <mxPoint x="588" y="504.5" />
              <mxPoint x="588" y="504.5" />
            </Array>
          </mxGeometry>
        </mxCell>
        <mxCell id="TXpV8QBchbM1sa9OBaiE-55" style="edgeStyle=orthogonalEdgeStyle;rounded=0;orthogonalLoop=1;jettySize=auto;html=1;endArrow=oval;endFill=0;" parent="1" edge="1">
          <mxGeometry relative="1" as="geometry">
            <mxPoint x="638" y="404.5" as="sourcePoint" />
            <mxPoint x="544" y="404.5" as="targetPoint" />
            <Array as="points">
              <mxPoint x="588" y="404.5" />
              <mxPoint x="588" y="404.5" />
            </Array>
          </mxGeometry>
        </mxCell>
        <mxCell id="TXpV8QBchbM1sa9OBaiE-56" style="edgeStyle=orthogonalEdgeStyle;rounded=0;orthogonalLoop=1;jettySize=auto;html=1;endArrow=oval;endFill=0;" parent="1" edge="1">
          <mxGeometry relative="1" as="geometry">
            <mxPoint x="477" y="614" as="sourcePoint" />
            <mxPoint x="388" y="610" as="targetPoint" />
            <Array as="points">
              <mxPoint x="427" y="614" />
              <mxPoint x="427" y="614" />
            </Array>
          </mxGeometry>
        </mxCell>
        <mxCell id="TXpV8QBchbM1sa9OBaiE-57" style="edgeStyle=orthogonalEdgeStyle;rounded=0;orthogonalLoop=1;jettySize=auto;html=1;exitX=0.75;exitY=1;exitDx=0;exitDy=0;endArrow=halfCircle;endFill=0;" parent="1" source="TXpV8QBchbM1sa9OBaiE-47" edge="1">
          <mxGeometry relative="1" as="geometry">
            <mxPoint x="658" y="610" as="targetPoint" />
            <mxPoint x="386" y="540" as="sourcePoint" />
            <Array as="points" />
          </mxGeometry>
        </mxCell>
        <mxCell id="TXpV8QBchbM1sa9OBaiE-58" style="edgeStyle=orthogonalEdgeStyle;rounded=0;orthogonalLoop=1;jettySize=auto;html=1;exitX=1;exitY=0.5;exitDx=0;exitDy=0;endArrow=halfCircle;endFill=0;" parent="1" source="TXpV8QBchbM1sa9OBaiE-28" edge="1">
          <mxGeometry relative="1" as="geometry">
            <mxPoint x="538" y="505" as="targetPoint" />
            <mxPoint x="386" y="540" as="sourcePoint" />
            <Array as="points">
              <mxPoint x="458" y="505" />
            </Array>
          </mxGeometry>
        </mxCell>
        <mxCell id="TXpV8QBchbM1sa9OBaiE-59" style="edgeStyle=orthogonalEdgeStyle;rounded=0;orthogonalLoop=1;jettySize=auto;html=1;exitX=1;exitY=0.5;exitDx=0;exitDy=0;endArrow=halfCircle;endFill=0;" parent="1" edge="1">
          <mxGeometry relative="1" as="geometry">
            <mxPoint x="538" y="404.5" as="targetPoint" />
            <mxPoint x="458" y="404.5" as="sourcePoint" />
            <Array as="points">
              <mxPoint x="458" y="404.5" />
            </Array>
          </mxGeometry>
        </mxCell>
        <mxCell id="TXpV8QBchbM1sa9OBaiE-61" value="&amp;lt;&amp;lt;component&amp;gt;&amp;gt;" style="text;html=1;align=center;verticalAlign=middle;resizable=0;points=[];autosize=1;strokeColor=none;fillColor=none;" parent="1" vertex="1">
          <mxGeometry x="348" y="270" width="110" height="30" as="geometry" />
        </mxCell>
        <mxCell id="TXpV8QBchbM1sa9OBaiE-62" value="&amp;lt;&amp;lt;component&amp;gt;&amp;gt;" style="text;html=1;align=center;verticalAlign=middle;resizable=0;points=[];autosize=1;strokeColor=none;fillColor=none;" parent="1" vertex="1">
          <mxGeometry x="478" y="585" width="110" height="30" as="geometry" />
        </mxCell>
        <mxCell id="TXpV8QBchbM1sa9OBaiE-63" value="&amp;lt;&amp;lt;component&amp;gt;&amp;gt;" style="text;html=1;align=center;verticalAlign=middle;resizable=0;points=[];autosize=1;strokeColor=none;fillColor=none;" parent="1" vertex="1">
          <mxGeometry x="348" y="470" width="110" height="30" as="geometry" />
        </mxCell>
        <mxCell id="TXpV8QBchbM1sa9OBaiE-64" value="&amp;lt;&amp;lt;component&amp;gt;&amp;gt;" style="text;html=1;align=center;verticalAlign=middle;resizable=0;points=[];autosize=1;strokeColor=none;fillColor=none;" parent="1" vertex="1">
          <mxGeometry x="348" y="370" width="110" height="30" as="geometry" />
        </mxCell>
        <mxCell id="TXpV8QBchbM1sa9OBaiE-65" value="&amp;lt;&amp;lt;component&amp;gt;&amp;gt;" style="text;html=1;align=center;verticalAlign=middle;resizable=0;points=[];autosize=1;strokeColor=none;fillColor=none;" parent="1" vertex="1">
          <mxGeometry x="638" y="270" width="110" height="30" as="geometry" />
        </mxCell>
        <mxCell id="TXpV8QBchbM1sa9OBaiE-66" value="&amp;lt;&amp;lt;component&amp;gt;&amp;gt;" style="text;html=1;align=center;verticalAlign=middle;resizable=0;points=[];autosize=1;strokeColor=none;fillColor=none;" parent="1" vertex="1">
          <mxGeometry x="638" y="370" width="110" height="30" as="geometry" />
        </mxCell>
        <mxCell id="TXpV8QBchbM1sa9OBaiE-67" value="&amp;lt;&amp;lt;component&amp;gt;&amp;gt;" style="text;html=1;align=center;verticalAlign=middle;resizable=0;points=[];autosize=1;strokeColor=none;fillColor=none;" parent="1" vertex="1">
          <mxGeometry x="638" y="470" width="110" height="30" as="geometry" />
        </mxCell>
        <mxCell id="TXpV8QBchbM1sa9OBaiE-68" style="edgeStyle=orthogonalEdgeStyle;rounded=0;orthogonalLoop=1;jettySize=auto;html=1;exitX=0.75;exitY=1;exitDx=0;exitDy=0;endArrow=halfCircle;endFill=0;" parent="1" source="TXpV8QBchbM1sa9OBaiE-22" edge="1">
          <mxGeometry relative="1" as="geometry">
            <mxPoint x="428" y="350" as="targetPoint" />
            <mxPoint x="386" y="390" as="sourcePoint" />
          </mxGeometry>
        </mxCell>
        <mxCell id="TXpV8QBchbM1sa9OBaiE-69" style="edgeStyle=orthogonalEdgeStyle;rounded=0;orthogonalLoop=1;jettySize=auto;html=1;endArrow=oval;endFill=0;exitX=0.75;exitY=0;exitDx=0;exitDy=0;" parent="1" source="TXpV8QBchbM1sa9OBaiE-26" edge="1">
          <mxGeometry relative="1" as="geometry">
            <mxPoint x="386" y="340" as="sourcePoint" />
            <mxPoint x="428" y="350" as="targetPoint" />
            <Array as="points" />
          </mxGeometry>
        </mxCell>
        <mxCell id="TXpV8QBchbM1sa9OBaiE-72" style="edgeStyle=orthogonalEdgeStyle;rounded=0;orthogonalLoop=1;jettySize=auto;html=1;exitX=0.75;exitY=1;exitDx=0;exitDy=0;endArrow=halfCircle;endFill=0;" parent="1" source="TXpV8QBchbM1sa9OBaiE-26" edge="1">
          <mxGeometry relative="1" as="geometry">
            <mxPoint x="431" y="450" as="targetPoint" />
            <mxPoint x="441" y="340" as="sourcePoint" />
            <Array as="points">
              <mxPoint x="431" y="440" />
              <mxPoint x="431" y="440" />
            </Array>
          </mxGeometry>
        </mxCell>
        <mxCell id="TXpV8QBchbM1sa9OBaiE-73" style="edgeStyle=orthogonalEdgeStyle;rounded=0;orthogonalLoop=1;jettySize=auto;html=1;endArrow=oval;endFill=0;exitX=0.75;exitY=0;exitDx=0;exitDy=0;" parent="1" source="TXpV8QBchbM1sa9OBaiE-28" edge="1">
          <mxGeometry relative="1" as="geometry">
            <mxPoint x="441" y="390" as="sourcePoint" />
            <mxPoint x="431" y="450" as="targetPoint" />
            <Array as="points" />
          </mxGeometry>
        </mxCell>
        <mxCell id="m1_RTbBFShSdH4C13ESz-2" value="&amp;lt;&amp;lt;component&amp;gt;&amp;gt;" style="text;html=1;align=center;verticalAlign=middle;resizable=0;points=[];autosize=1;strokeColor=none;fillColor=none;" vertex="1" parent="1">
          <mxGeometry x="478" y="210" width="110" height="30" as="geometry" />
        </mxCell>
        <mxCell id="m1_RTbBFShSdH4C13ESz-3" value="WebServer" style="text;html=1;align=center;verticalAlign=middle;resizable=0;points=[];autosize=1;strokeColor=none;fillColor=none;" vertex="1" parent="1">
          <mxGeometry x="493" y="230" width="80" height="30" as="geometry" />
        </mxCell>
      </root>
    </mxGraphModel>
  </diagram>
</mxfile>
